<?xml version="1.0" encoding="UTF-8" standalone="no"?><!DOCTYPE svg PUBLIC "-//W3C//DTD SVG 1.1//EN" "http://www.w3.org/Graphics/SVG/1.1/DTD/svg11.dtd"><svg width="100%" height="100%" viewBox="0 0 3334 460" version="1.1" xmlns="http://www.w3.org/2000/svg" xmlns:xlink="http://www.w3.org/1999/xlink" xml:space="preserve" xmlns:serif="http://www.serif.com/" style="fill-rule:evenodd;clip-rule:evenodd;stroke-linejoin:round;stroke-miterlimit:2;"><g><path d="M2595.04,260.593c-0.585,166.236 -188.803,184.897 -210.821,23.214c-23.502,-166.542 132.836,-247.163 191.448,-100.587l-139.224,65.756l21.271,50.289l224.353,-110.242c-87.324,-211.558 -393.171,-156.86 -402.295,65.757c17.924,258.491 394.08,266.553 419.706,5.804l-104.438,0.009Z" style="fill:#e5001f;fill-rule:nonzero;"/><path d="M3039.88,107.799l0,-52.223c-408.576,-48.931 -408.225,445.098 0,398.426l0,-52.224c-118.106,6.389 -194.21,-13.892 -195.344,-146.989c-0.09,-131.099 77.652,-156.239 195.344,-146.99m-1885.75,-44.485l-102.513,293.979l-104.438,-293.979l-114.112,-0l94.739,270.773l19.373,54.159l7.738,19.336l5.803,9.673l3.833,7.738l5.831,5.795l5.777,5.803l5.83,5.804l5.768,3.869l7.774,1.935l9.673,3.869l9.628,-0l11.643,1.934c31.529,-5.669 25.374,1.512 50.253,-19.345l5.84,-7.739l3.869,-5.794l5.795,-9.673l7.738,-19.345l9.636,-25.14l11.608,-30.953l96.709,-272.69l-63.795,-0.009Zm-860.675,-56.093l0,437.117l108.308,0l-0,-437.108l-108.308,-0.009Zm346.194,48.355c-232.956,11.643 -179.508,213.106 -181.794,388.762l106.382,0l0,-241.773l1.935,-9.664l0,-11.607l1.935,-9.673l3.869,-9.672l3.869,-7.738l3.833,-9.664c10.572,-23.242 34.813,-38.07 59.989,-36.748c19.795,-1.97 46.897,11.995 54.122,30.953l3.869,5.795l3.869,9.673l3.896,7.738l3.869,19.336l1.935,11.607l-0,9.664l1.935,11.607l-0,230.166l108.28,0c-1.584,-172.489 50.568,-379.917 -181.775,-388.753m1553.04,245.624l0,-185.671l100.579,-0l-0,-52.224l-100.579,-0l0,-56.084l-104.438,0l-0,317.185l1.961,15.476l1.908,13.533c3.707,16.799 14.99,45.907 27.11,58.027c42.066,46.933 119.267,34.039 174.038,36.748l-0,-52.224c-77.364,1.349 -99.805,-15.891 -100.579,-94.766m-342.324,-245.633c-228.835,9.573 -181.065,216.939 -181.776,388.762l110.242,0l0,-251.437l1.935,-11.607l3.869,-19.345l3.833,-7.738l3.905,-9.664c11.472,-23.629 31.403,-37.521 57.992,-36.748c21.406,-0.971 47.544,10.186 56.083,30.953l5.84,5.795l3.869,9.673l1.935,7.738l3.869,9.663l1.934,9.673l1.935,11.607l-0,251.428l106.328,0c-1.8,-173.128 51.864,-380.178 -181.793,-388.753m-324.896,205.017c-0.486,165.75 -186.814,185.77 -208.895,23.214c-25.536,-165.03 131.945,-248.324 189.549,-100.587l-139.287,65.756l23.242,50.289l222.391,-110.242c-88.08,-214.356 -394.701,-153.234 -400.343,65.766c14.703,258.689 395.116,266.157 417.781,5.804l-104.438,-0Z" style="fill:#e5001f;fill-rule:nonzero;"/></g></svg>