<svg version="1.2" xmlns="http://www.w3.org/2000/svg" viewBox="0 0 1551 876" width="1551" height="876"><style>.a{fill:#0058a1}.b{fill:#bd002c}.c{fill:#231815}</style><path class="a" d="m749 549.4v110.4c-181.2-0.8-327.7-148-327.7-329.6 0-181.8 147.5-329.4 329.4-329.4 181.3 0 328.5 146.6 329.4 327.8h-110.4c-1-120.3-98.6-217.4-219-217.4-120.9 0-219 98.1-219 219 0 120.6 97.1 218.2 217.3 219.2z"/><path class="b" d="m1212.3 441.7h-446.1c-7.7-16.4-17.8-48.2-18.5-77h464.6zm0 110.1h-383.3c-27.9-27.1-45.7-62.3-50.7-76.9h434zm0 32.8v77.1h-163.7l-2.2-0.4c-67.4-4.1-129.9-31.8-183-76.7z"/><path fill-rule="evenodd" class="c" d="m131.2 789.4q-1 6-3.1 11.7-2.2 5.8-5.5 10.9-3.2 5.2-7.4 9.7l22.5 28.8h-29.3l-11-14.1q-13.8 7.1-30.8 7.1c-19 0-34.6-6.5-47.3-19.6q-18.6-19.8-18.8-47 0-4.5 0.5-8.8 0.7-4.3 1.7-8.5 1.1-4.2 2.8-8.3 1.7-4 3.8-7.9 2.2-3.6 4.9-7.1 2.6-3.5 5.6-6.5 3-3.2 6.5-5.9 3.5-2.6 7.2-4.8c10.3-5.8 21.3-8.8 32.9-8.8q27 0 46.3 19.5 19.4 19.5 19.5 47.4 0 6.2-1 12.2zm-31.1 12.8q7.5-11.3 7.5-25.1 0-18-12-30.7c-8-8.5-17.8-12.6-29.2-12.6q-4.1-0.2-8.1 0.6-4.2 0.7-7.8 2.4-3.9 1.5-7.4 3.8-3.3 2.5-6.1 5.5c-8 8.2-11.9 18.5-11.9 31.1 0 14 5 25.2 14.9 33.2q2.8 2.3 5.8 4.1 3.2 1.9 6.5 3.2 3.5 1.2 7 1.8 3.6 0.5 7.1 0.5 2.2 0 4.2-0.1 2-0.2 4-0.5 2-0.4 4-1 2-0.5 3.8-1.2l-23-29.6h29.4zm52.2-55.7h23.5v45.3q0 13.2 1.9 18.4 0.3 1.1 1 2.3 0.5 1.2 1.3 2.2 0.7 1 1.7 1.8 0.8 1 1.8 1.7 1.2 0.8 2.3 1.3 1.2 0.5 2.5 1 1.3 0.3 2.5 0.5 1.3 0.2 2.7 0.2c4 0 7.5-1 10.1-2.9q1.2-0.8 2-1.6 1-1 1.9-2 0.8-1.2 1.3-2.4 0.7-1.1 1.2-2.3 1.3-4 1.3-17.5v-46h23.5v39.8c0 16.4-1.4 27.5-3.9 33.7-3.1 7.3-7.8 13-13.9 16.8q-9.4 6-23.5 6-15.5 0-25-7-2.5-1.7-4.5-3.8-2.2-2.2-3.8-4.7-1.7-2.3-3-5.1-1.4-2.7-2.2-5.5c-1.8-5.7-2.7-16.2-2.7-31.2zm175.9 0h23.3v93.9h-23.3v-10q-7.2 6.7-14 9.5c-4.8 2-9.8 3-15.1 3-12.4 0-22.9-4.8-31.9-14.1q-13.3-14.2-13.3-35.2c0-14.4 4.4-26.3 12.8-35.6 8.9-9.3 19.2-14 31.5-14q2.2 0 4.2 0.2l4 0.6q2.1 0.5 4 1 2 0.7 3.8 1.5 2 0.9 3.8 1.9 1.9 1 3.7 2.3 1.7 1.2 3.3 2.5 1.7 1.3 3 2.8c0.2 0 0.2-10.3 0.2-10.3zm-25 19.3q-2.6 0-5.1 0.5-2.5 0.4-4.9 1.4-2.3 1.1-4.5 2.5-2 1.5-3.8 3.5c-4.8 5-7.2 11.6-7.2 19.6 0 8.2 2.4 14.7 7.4 20 5 5.2 11 7.8 18.1 7.8q2.7 0.2 5.2-0.3 2.5-0.5 5-1.5 2.3-1 4.5-2.5 2.1-1.5 3.8-3.3 7.5-7.9 7.3-20.2 0.2-12.3-7.3-19.8-7.3-7.7-18.5-7.7zm71.8-19.3h23.5v9.7l3.3-2.7q1.8-1.3 3.7-2.5 1.8-1.3 3.6-2.3 1.9-1 3.9-2 6.4-2.7 13.3-2.7c9.3 0 17.3 3.3 23.8 9.8 5.3 5.7 8.1 13.9 8.1 24.7v61.9h-23.4v-40.9q0-16.8-1.5-22.3-0.4-1.4-0.9-2.5-0.5-1.2-1.1-2.2-0.7-1-1.5-2-0.9-1-1.9-1.8-0.8-0.7-2-1.4-1.1-0.5-2.3-0.8-1.2-0.3-2.3-0.5-1.2-0.2-2.5-0.2-1.7 0-3.3 0.2-1.7 0.3-3.2 1-1.7 0.7-3 1.5-1.5 1-2.7 2.2c-3.5 3.1-5.8 7.5-7.1 13.1q-1 4.5-1 19v37.6h-23.5zm109.2-34.4h23.5v34.4h14.2v20h-14.2v74h-23.5v-74h-12.1v-20h12.1zm119.6 34.7h23.5v93.7h-23.5v-9.9q-7 6.6-14 9.6-1.7 0.7-3.7 1.2-1.8 0.6-3.6 1-2 0.3-3.9 0.5-2 0.1-4 0.1c-12.1 0-22.8-4.8-31.6-14.1q-13.5-14.2-13.5-35.2 0-21.7 13-35.4 13-14 31.5-14 2-0.2 4.1 0.2 2 0.1 4 0.5 2 0.4 4 1.1 2 0.5 3.9 1.3 2 0.9 3.8 1.9l3.7 2.3q1.6 1.2 3.3 2.5l3 3zm-24.8 19.2c-7.3 0-13.5 2.6-18.3 7.8q-7.4 7.6-7.2 19.6c0 8.2 2.3 14.9 7.3 20q1.7 2 3.9 3.5 2 1.5 4.3 2.5 2.3 1 5 1.5 2.5 0.5 5 0.5 2.6 0 5.1-0.5 2.5-0.5 5-1.5 2.4-1 4.5-2.5 2-1.3 3.9-3.3c5-5.2 7.3-11.8 7.3-20.2 0-8.1-2.3-14.8-7.3-19.8q-7.4-7.6-18.5-7.6zm240.6-30l-16.8 16.1c-11.5-12.1-24.3-18.1-38.6-18.1q-4.4-0.2-8.5 0.7-4.2 0.6-8 2.3-4 1.5-7.5 4-3.5 2.3-6.5 5.3-3 3-5.5 6.5-2.3 3.5-3.8 7.5-1.7 4-2.5 8.2-0.7 4.1-0.7 8.3 0 12.7 5.5 22.5c3.6 6.5 8.8 11.6 15.6 15.3q10 5.7 22.4 5.7 10.4 0 18.9-3.9c5.9-2.6 12.2-7.5 19.2-14.3l16.3 17.2c-9.3 9.1-18.1 15.6-26.6 19.1q-12.5 5.3-28.5 5.3c-19.7 0-35.8-6.3-48.5-18.8q-18.8-18.6-18.8-47.9c0-12.7 2.8-24 8.7-33.9q2.1-3.6 4.8-7.1 2.7-3.3 5.8-6.3 3-3 6.5-5.7 3.5-2.5 7.3-4.7 4-2.1 8.2-3.8 4.2-1.7 8.5-2.8 4.3-1.2 8.8-1.7 4.5-0.5 9-0.5 15.8 0 30.3 6.7 14.5 6.5 25 18.8zm62.8 8.3q3.1 0 6.5 0.3 3.1 0.5 6.5 1.4 3.1 0.8 6.1 2 3 1.3 5.9 3 2.8 1.5 5.5 3.5 2.5 2 4.8 4.1 2.3 2.4 4.3 5 2 2.5 3.7 5.4 6.6 11.4 6.5 24.6c0 8.8-2.2 17.2-6.5 24.8q-6.7 11.7-18.2 18.2-11.3 6.5-25.1 6.5-20.2 0-34.5-14.4-14.3-14.4-14.3-34.9-0.2-5.2 0.8-10.4 1-4.9 3.2-9.8 2-4.6 5.2-9 2.9-4.1 6.9-7.5 14.2-12.8 32.7-12.8zm0.5 22.2q-2.7-0.2-5.2 0.3-2.5 0.5-4.8 1.5-2.3 1-4.5 2.5-2 1.5-3.8 3.3c-4.9 5-7.2 11.7-7.2 19.5 0 8.3 2.3 15 7.2 20q7.1 7.8 18.1 7.8 2.7 0 5.2-0.5 2.5-0.5 4.8-1.5 2.3-1 4.5-2.5 2.2-1.5 3.8-3.3 7.4-7.7 7.4-20c0-8-2.4-14.5-7.2-19.6-4.8-5-11-7.5-18.3-7.5zm68.3-19.7h23.4v10.8q6-6.6 13.5-10c4.9-2.1 10.4-3.3 16.2-3.3q8.8 0 16 4.3c4.6 3 8.5 7.2 11.5 12.9 3.6-5.7 8.3-9.9 13.6-12.9q8.3-4.3 18-4.3c6.7 0 12.7 1.5 17.6 4.7q7.7 4.6 11 12.1c2.2 5 3.5 13.2 3.5 24.5v55h-23.6v-47.3q0-16-4-21.7c-2.8-3.6-6.8-5.6-12.2-5.6q-3 0-5.8 1-2.8 0.8-5.3 2.6-2.5 1.7-4.4 4.2-1.8 2.3-2.8 5.1c-1.6 4-2.3 10.5-2.3 19.5v42.3h-23.5v-45.4q0-12.5-2-18.2-0.3-1.1-0.8-2.3l-1.4-2.3q-0.6-1-1.5-2l-2-1.7-2-1.3q-1-0.5-2.1-0.9-1.2-0.3-2.5-0.5-1.2-0.1-2.3-0.1-1.5 0-2.9 0.3-1.5 0.2-2.8 0.7-1.3 0.3-2.7 1-1.3 0.6-2.5 1.5-1.1 1-2.1 2.1-1.2 1-2 2.4-1 1.1-1.7 2.5-0.8 1.5-1.3 2.8-2.4 6.3-2.4 19.8v41.6h-23.4zm189.6 0v10.4l3-3q1.7-1.4 3.4-2.5l3.6-2.4q1.9-1 3.9-1.8c4.9-2.2 10.3-3.2 15.9-3.2q18.5-0.1 31.3 13.9c8.7 9.3 13 21.1 13 35.6q0 21-13.3 35.1-13.3 14.2-31.6 14.2-2 0-4-0.2-1.9-0.1-3.9-0.5-1.8-0.5-3.8-1-1.8-0.5-3.6-1.3-7-2.8-13.9-9.5v44.5h-23.5v-128.3zm24.7 19.2q-11.2 0-18.5 7.6-7.3 7.5-7.3 19.9 0 12.5 7.3 20.1 1.8 1.9 4 3.3 2 1.5 4.5 2.5 2.3 1 4.8 1.5 2.7 0.5 5.2 0.4 2.7 0.1 5.2-0.4 2.5-0.5 4.8-1.5 2.3-1 4.5-2.5 2-1.4 3.6-3.4 7.5-7.8 7.5-20c0-8-2.3-14.5-7.3-19.7-4.8-5.1-10.8-7.8-18.3-7.8zm68.4-19.2h23.5v45.2q0 13.3 1.8 18.5 1.9 5.1 6 7.9 1 0.7 2.2 1.4 1.3 0.5 2.5 0.8 1.3 0.5 2.7 0.7 1.3 0.1 2.6 0c3.9 0 7.4-1 10-2.9q1.2-0.6 2.2-1.6 0.8-0.8 1.7-1.8 0.8-1.2 1.3-2.4 0.7-1.1 1-2.3 1.5-4 1.5-17.5v-46h23.5v39.7c0 16.5-1.4 27.6-3.9 33.8-3.1 7.3-7.8 13-14 16.8q-9.1 6-23.4 6-15.5 0-25-7-2.3-1.8-4.5-3.8-2.2-2.2-3.8-4.7-1.7-2.5-3-5.2-1.4-2.6-2.2-5.5-2.7-8.6-2.7-31.1zm109.3-34.5h23.5v34.5h13.9v20h-13.9v73.9h-23.5v-73.9h-12.2v-20h12.2zm143.9 88.1h-75.8q0.3 2.3 1 4.5 0.6 2.3 1.8 4.3 1.2 2 2.7 3.9 1.5 1.8 3.1 3.5c4.9 4 10.9 5.8 18.2 5.8q3.2 0.2 6.3-0.5 3.2-0.5 6-1.8 3-1.2 5.5-2.9 2.7-1.8 4.8-4.1l20 9.3c-5 7.2-11 12.3-17.8 15.8q-10.5 5-24.5 5-22.1 0-36.1-14c-9.2-9.3-13.8-21-13.8-35q0-21.4 13.8-35.6 14-14.2 34.8-14.2 22.3 0 36.1 14.2c9.4 9.3 14 21.8 14 37.3zm-23.5-18.3q-2.3-7.8-9.1-12.7-7-5-16-5-10 0-17.5 5.5c-3.2 2.4-6 6.4-8.7 12.2zm37.2-35.1h20.3v11.8q0.8-1.7 1.7-3 0.8-1.5 2-3 1-1.4 2.3-2.5 1.2-1.2 2.7-2.2c3.5-2.5 7.5-3.6 11.6-3.6q4.5 0 9.5 2.5l-7.3 20.3q-0.7-0.5-1.5-0.9l-1.7-0.6-1.6-0.4q-1-0.1-1.9-0.3c-3.6 0-6.5 2.3-9 6.8q-3.8 6.7-3.8 26.3l0.2 4.7v38h-23.5z"/></svg>